<?xml version="1.0" encoding="UTF-8" standalone="no"?><svg xmlns="http://www.w3.org/2000/svg" xmlns:xlink="http://www.w3.org/1999/xlink" contentScriptType="application/ecmascript" contentStyleType="text/css" height="1061px" preserveAspectRatio="none" style="width:834px;height:1061px;background:#FFFFFF;" version="1.1" viewBox="0 0 834 1061" width="834px" zoomAndPan="magnify"><defs><filter height="300%" id="fjaehp6zkk0tj" width="300%" x="-1" y="-1"><feGaussianBlur result="blurOut" stdDeviation="2.0"/><feColorMatrix in="blurOut" result="blurOut2" type="matrix" values="0 0 0 0 0 0 0 0 0 0 0 0 0 0 0 0 0 0 .4 0"/><feOffset dx="4.0" dy="4.0" in="blurOut2" result="blurOut3"/><feBlend in="SourceGraphic" in2="blurOut3" mode="normal"/></filter></defs><g><!--MD5=[279d919a9ffbcfa987aca3390d05b342]
cluster readers--><polygon fill="#FFFFFF" filter="url(#fjaehp6zkk0tj)" points="229.5,837,290.5,837,297.5,860.6094,608,860.6094,608,1054,229.5,1054,229.5,837" style="stroke:#000000;stroke-width:1.5;"/><line style="stroke:#000000;stroke-width:1.5;" x1="229.5" x2="297.5" y1="860.6094" y2="860.6094"/><text fill="#000000" font-family="sans-serif" font-size="14" font-weight="bold" lengthAdjust="spacing" textLength="55" x="233.5" y="853.5332">readers</text><!--MD5=[d1284f22f21e87d3dd5607de95774b03]
cluster writers--><polygon fill="#FFFFFF" filter="url(#fjaehp6zkk0tj)" points="82,6,137,6,144,29.6094,604,29.6094,604,766,82,766,82,6" style="stroke:#000000;stroke-width:1.5;"/><line style="stroke:#000000;stroke-width:1.5;" x1="82" x2="144" y1="29.6094" y2="29.6094"/><text fill="#000000" font-family="sans-serif" font-size="14" font-weight="bold" lengthAdjust="spacing" textLength="49" x="86" y="22.5332">writers</text><!--MD5=[f36b681f1568c85a1e29d94d0cd105c7]
entity Reader--><ellipse cx="269" cy="899" fill="#FEFECE" filter="url(#fjaehp6zkk0tj)" rx="8" ry="8" style="stroke:#A80036;stroke-width:1.5;"/><path d="M269,907 L269,934 M256,915 L282,915 M269,934 L256,949 M269,934 L282,949 " fill="none" filter="url(#fjaehp6zkk0tj)" style="stroke:#A80036;stroke-width:1.5;"/><text fill="#000000" font-family="sans-serif" font-size="14" lengthAdjust="spacing" textLength="47" x="245.5" y="969.0332">Reader</text><ellipse cx="525.2132" cy="889.0613" fill="#FEFECE" filter="url(#fjaehp6zkk0tj)" rx="57.2132" ry="15.5613" style="stroke:#A80036;stroke-width:1.5;"/><text fill="#000000" font-family="sans-serif" font-size="14" lengthAdjust="spacing" textLength="64" x="490.2132" y="893.5779">readEntity</text><ellipse cx="525.102" cy="955.1136" fill="#FEFECE" filter="url(#fjaehp6zkk0tj)" rx="64.602" ry="15.6136" style="stroke:#A80036;stroke-width:1.5;"/><text fill="#000000" font-family="sans-serif" font-size="14" lengthAdjust="spacing" textLength="74" x="485.102" y="959.6302">readPerson</text><ellipse cx="524.7537" cy="1021.7507" fill="#FEFECE" filter="url(#fjaehp6zkk0tj)" rx="66.7537" ry="15.7507" style="stroke:#A80036;stroke-width:1.5;"/><text fill="#000000" font-family="sans-serif" font-size="14" lengthAdjust="spacing" textLength="78" x="482.7537" y="1026.2673">readProduct</text><!--MD5=[8d81e54158b732e3892f5ec8abe1acfa]
entity Writer--><ellipse cx="117" cy="399" fill="#FEFECE" filter="url(#fjaehp6zkk0tj)" rx="8" ry="8" style="stroke:#A80036;stroke-width:1.5;"/><path d="M117,407 L117,434 M104,415 L130,415 M117,434 L104,449 M117,434 L130,449 " fill="none" filter="url(#fjaehp6zkk0tj)" style="stroke:#A80036;stroke-width:1.5;"/><text fill="#000000" font-family="sans-serif" font-size="14" lengthAdjust="spacing" textLength="38" x="98" y="469.0332">Writer</text><ellipse cx="269.1985" cy="733.9517" fill="#FEFECE" filter="url(#fjaehp6zkk0tj)" rx="32.6985" ry="15.4517" style="stroke:#A80036;stroke-width:1.5;"/><text fill="#000000" font-family="sans-serif" font-size="14" lengthAdjust="spacing" textLength="30" x="254.1985" y="737.6802">login</text><ellipse cx="268.841" cy="668.1182" fill="#FEFECE" filter="url(#fjaehp6zkk0tj)" rx="65.341" ry="15.6182" style="stroke:#A80036;stroke-width:1.5;"/><text fill="#000000" font-family="sans-serif" font-size="14" lengthAdjust="spacing" textLength="75" x="228.341" y="672.6348">createEntity</text><ellipse cx="269.1119" cy="465.2224" fill="#FEFECE" filter="url(#fjaehp6zkk0tj)" rx="69.1119" ry="16.2224" style="stroke:#A80036;stroke-width:1.5;"/><text fill="#000000" font-family="sans-serif" font-size="14" lengthAdjust="spacing" textLength="85" x="223.6119" y="469.739">createPerson</text><ellipse cx="269.0039" cy="397.0008" fill="#FEFECE" filter="url(#fjaehp6zkk0tj)" rx="70.5039" ry="16.5008" style="stroke:#A80036;stroke-width:1.5;"/><text fill="#000000" font-family="sans-serif" font-size="14" lengthAdjust="spacing" textLength="89" x="221.5039" y="401.5174">createProduct</text><ellipse cx="269.0842" cy="600.8168" fill="#FEFECE" filter="url(#fjaehp6zkk0tj)" rx="67.0842" ry="15.8168" style="stroke:#A80036;stroke-width:1.5;"/><text fill="#000000" font-family="sans-serif" font-size="14" lengthAdjust="spacing" textLength="79" x="226.5842" y="605.3334">updateEntity</text><ellipse cx="269.0039" cy="533.0008" fill="#FEFECE" filter="url(#fjaehp6zkk0tj)" rx="70.5039" ry="16.5008" style="stroke:#A80036;stroke-width:1.5;"/><text fill="#000000" font-family="sans-serif" font-size="14" lengthAdjust="spacing" textLength="89" x="221.5039" y="537.5174">updatePerson</text><ellipse cx="268.9259" cy="327.7852" fill="#FEFECE" filter="url(#fjaehp6zkk0tj)" rx="71.9259" ry="16.7852" style="stroke:#A80036;stroke-width:1.5;"/><text fill="#000000" font-family="sans-serif" font-size="14" lengthAdjust="spacing" textLength="93" x="219.4259" y="332.3018">updateProduct</text><ellipse cx="269.102" cy="260.1136" fill="#FEFECE" filter="url(#fjaehp6zkk0tj)" rx="64.602" ry="15.6136" style="stroke:#A80036;stroke-width:1.5;"/><text fill="#000000" font-family="sans-serif" font-size="14" lengthAdjust="spacing" textLength="74" x="229.102" y="264.6302">deleteEntity</text><ellipse cx="268.7688" cy="193.1538" fill="#FEFECE" filter="url(#fjaehp6zkk0tj)" rx="68.7688" ry="16.1538" style="stroke:#A80036;stroke-width:1.5;"/><text fill="#000000" font-family="sans-serif" font-size="14" lengthAdjust="spacing" textLength="84" x="223.7688" y="197.6704">deletePerson</text><ellipse cx="269.1531" cy="124.9306" fill="#FEFECE" filter="url(#fjaehp6zkk0tj)" rx="70.1531" ry="16.4306" style="stroke:#A80036;stroke-width:1.5;"/><text fill="#000000" font-family="sans-serif" font-size="14" lengthAdjust="spacing" textLength="88" x="222.1531" y="129.4472">deleteProduct</text><ellipse cx="524.7806" cy="533.0229" fill="#FEFECE" filter="url(#fjaehp6zkk0tj)" rx="52.7806" ry="15.5229" style="stroke:#A80036;stroke-width:1.5;"/><text fill="#000000" font-family="sans-serif" font-size="14" lengthAdjust="spacing" textLength="58" x="492.7806" y="537.5395">editEntity</text><ellipse cx="525.1685" cy="668.0838" fill="#FEFECE" filter="url(#fjaehp6zkk0tj)" rx="60.1685" ry="15.5838" style="stroke:#A80036;stroke-width:1.5;"/><text fill="#000000" font-family="sans-serif" font-size="14" lengthAdjust="spacing" textLength="68" x="488.1685" y="672.6004">editPerson</text><ellipse cx="525.1242" cy="397.1042" fill="#FEFECE" filter="url(#fjaehp6zkk0tj)" rx="63.1242" ry="15.6042" style="stroke:#A80036;stroke-width:1.5;"/><text fill="#000000" font-family="sans-serif" font-size="14" lengthAdjust="spacing" textLength="72" x="486.1242" y="401.6208">editProduct</text><ellipse cx="269.0624" cy="57.9517" fill="#FEFECE" filter="url(#fjaehp6zkk0tj)" rx="39.0624" ry="15.4517" style="stroke:#A80036;stroke-width:1.5;"/><text fill="#000000" font-family="sans-serif" font-size="14" lengthAdjust="spacing" textLength="39" x="249.5624" y="61.6802">logout</text><!--MD5=[fee662a292a0353a69bd162820bae93b]
entity User--><ellipse cx="20.5" cy="771" fill="#FEFECE" filter="url(#fjaehp6zkk0tj)" rx="8" ry="8" style="stroke:#A80036;stroke-width:1.5;"/><path d="M20.5,779 L20.5,806 M7.5,787 L33.5,787 M20.5,806 L7.5,821 M20.5,806 L33.5,821 " fill="none" filter="url(#fjaehp6zkk0tj)" style="stroke:#A80036;stroke-width:1.5;"/><text fill="#000000" font-family="sans-serif" font-size="14" lengthAdjust="spacing" textLength="29" x="6" y="841.0332">User</text><ellipse cx="766.7356" cy="803.0492" fill="#FEFECE" filter="url(#fjaehp6zkk0tj)" rx="55.7356" ry="15.5492" style="stroke:#A80036;stroke-width:1.5;"/><text fill="#000000" font-family="sans-serif" font-size="14" lengthAdjust="spacing" textLength="62" x="732.7356" y="807.5658">readIndex</text><!--MD5=[9d44cc08e220453bd8c5016207f98233]
link User to readIndex--><path d="M35.27,803 C53.67,803 87.29,803 116,803 C116,803 116,803 526,803 C587.18,803 657.15,803 705.6,803 " fill="none" id="User-to-readIndex" style="stroke:#A80036;stroke-width:1.0;"/><polygon fill="#A80036" points="710.81,803,701.81,799,705.81,803,701.81,807,710.81,803" style="stroke:#A80036;stroke-width:1.0;"/><!--MD5=[a894a917ca6ff84c1aa27afa9c167d1f]
reverse link User to Reader--><path d="M52.32,821.8 C56.55,824.27 60.86,826.73 65,829 C129.48,864.41 207.75,902.36 245.49,920.36 " fill="none" id="User-backto-Reader" style="stroke:#A80036;stroke-width:1.0;"/><polygon fill="none" points="48.62,827.74,35.07,811.46,55.82,815.73,48.62,827.74" style="stroke:#A80036;stroke-width:1.0;"/><!--MD5=[d6be2c1645babe9611abd4c64d47e563]
link Reader to readPerson--><path d="M292.54,933.13 C329.65,936.64 404.94,943.75 459.59,948.91 " fill="none" id="Reader-to-readPerson" style="stroke:#A80036;stroke-width:1.0;"/><polygon fill="#A80036" points="464.82,949.41,456.2241,944.6027,459.841,948.9522,455.4915,952.5691,464.82,949.41" style="stroke:#A80036;stroke-width:1.0;"/><!--MD5=[0462ac9378e1c19fe627db7a8eaeb61a]
link Reader to readEntity--><path d="M292.54,927.27 C332.18,920.72 415.37,906.96 470.46,897.85 " fill="none" id="Reader-to-readEntity" style="stroke:#A80036;stroke-width:1.0;"/><polygon fill="#A80036" points="475.7,896.99,466.1683,894.5106,470.7669,897.805,467.4724,902.4036,475.7,896.99" style="stroke:#A80036;stroke-width:1.0;"/><!--MD5=[2bf9a8339905df32ccdddedc5e503bcd]
link Reader to readProduct--><path d="M292.54,939.08 C335.09,954.32 427.82,987.54 482.11,1006.99 " fill="none" id="Reader-to-readProduct" style="stroke:#A80036;stroke-width:1.0;"/><polygon fill="#A80036" points="486.92,1008.71,479.7988,1001.9064,482.2136,1007.022,477.098,1009.4367,486.92,1008.71" style="stroke:#A80036;stroke-width:1.0;"/><!--MD5=[b08f39dea1c0f3286676b81ff8c1ac7f]
link readPerson to readIndex--><path d="M568.84,943.58 C601.59,933.49 646.77,916.54 681,892 C708.85,872.04 735.06,842.03 750.7,822.48 " fill="none" id="readPerson-to-readIndex" style="stroke:#A80036;stroke-width:1.0;stroke-dasharray:7.0,7.0;"/><polygon fill="#A80036" points="754.06,818.23,745.3345,822.7979,750.9539,822.1482,751.6036,827.7676,754.06,818.23" style="stroke:#A80036;stroke-width:1.0;"/><text fill="#000000" font-family="sans-serif" font-size="13" lengthAdjust="spacing" textLength="55" x="625" y="888.4951">«include»</text><!--MD5=[2c46b78e63f089b8a73104f80ae2cf0b]
link readEntity to readIndex--><path d="M570.58,879.61 C602,872.35 644.77,861.15 681,847 C700.57,839.35 721.53,828.46 737.68,819.42 " fill="none" id="readEntity-to-readIndex" style="stroke:#A80036;stroke-width:1.0;stroke-dasharray:7.0,7.0;"/><polygon fill="#A80036" points="742.1,816.93,732.2958,817.8667,737.7448,819.3861,736.2255,824.8351,742.1,816.93" style="stroke:#A80036;stroke-width:1.0;"/><text fill="#000000" font-family="sans-serif" font-size="13" lengthAdjust="spacing" textLength="55" x="625" y="843.4951">«include»</text><!--MD5=[797a19ba5816a2a2a5abf0e1904c4eb5]
link readProduct to readIndex--><path d="M570.07,1010.12 C604.13,998.97 650.48,979.26 681,948 C717.75,910.36 744.69,853.68 757.38,823.55 " fill="none" id="readProduct-to-readIndex" style="stroke:#A80036;stroke-width:1.0;stroke-dasharray:7.0,7.0;"/><polygon fill="#A80036" points="759.44,818.6,752.2966,825.3802,757.524,823.2183,759.6859,828.4458,759.44,818.6" style="stroke:#A80036;stroke-width:1.0;"/><text fill="#000000" font-family="sans-serif" font-size="13" lengthAdjust="spacing" textLength="55" x="625" y="944.4951">«include»</text><!--MD5=[5d60ce49790cf36c9e2df3305e27098b]
reverse link User to Writer--><path d="M37.02,741.9 C56.33,665.9 88.77,538.18 105.43,472.61 " fill="none" id="User-backto-Writer" style="stroke:#A80036;stroke-width:1.0;"/><polygon fill="none" points="43.77,743.75,32.07,761.41,30.21,740.3,43.77,743.75" style="stroke:#A80036;stroke-width:1.0;"/><!--MD5=[77ce27707ea50a72a4caad9d84c6af3f]
link Writer to login--><path d="M119.65,472.65 C124.06,530.48 139.98,635.38 197,701 C206.93,712.42 221.65,720.15 235.11,725.24 " fill="none" id="Writer-to-login" style="stroke:#A80036;stroke-width:1.0;"/><polygon fill="#A80036" points="240.01,727,232.8888,720.1964,235.3036,725.312,230.188,727.7267,240.01,727" style="stroke:#A80036;stroke-width:1.0;"/><!--MD5=[d05a42669ff8f3a9ee31655dd781e05e]
link Writer to createEntity--><path d="M124.85,472.78 C134.14,517.57 154.7,588.38 197,634 C204.49,642.08 214.31,648.45 224.25,653.37 " fill="none" id="Writer-to-createEntity" style="stroke:#A80036;stroke-width:1.0;"/><polygon fill="#A80036" points="228.81,655.54,222.3664,648.0915,224.2849,653.4131,218.9633,655.3316,228.81,655.54" style="stroke:#A80036;stroke-width:1.0;"/><!--MD5=[15053cfd4d87769e182f2255f44aed36]
link Writer to createPerson--><path d="M136.09,435.1 C155.31,439.46 186.63,446.56 213.92,452.74 " fill="none" id="Writer-to-createPerson" style="stroke:#A80036;stroke-width:1.0;"/><polygon fill="#A80036" points="218.97,453.89,211.0848,447.9889,214.0952,452.7782,209.3059,455.7886,218.97,453.89" style="stroke:#A80036;stroke-width:1.0;"/><!--MD5=[8b8a5d5721ba5af066764cf31f99c14b]
link Writer to createProduct--><path d="M136.09,426.9 C155.02,422.61 185.67,415.66 212.67,409.54 " fill="none" id="Writer-to-createProduct" style="stroke:#A80036;stroke-width:1.0;"/><polygon fill="#A80036" points="217.66,408.41,208,406.4906,212.7828,409.5113,209.7621,414.2941,217.66,408.41" style="stroke:#A80036;stroke-width:1.0;"/><!--MD5=[1d939db3dd5c7ad39a78d832ab290a2a]
link Writer to updateEntity--><path d="M134.24,472.55 C147.47,502 168.61,540.79 197,567 C205.18,574.56 215.36,580.75 225.42,585.68 " fill="none" id="Writer-to-updateEntity" style="stroke:#A80036;stroke-width:1.0;"/><polygon fill="#A80036" points="230.03,587.86,223.5955,580.4036,225.5075,585.7276,220.1836,587.6396,230.03,587.86" style="stroke:#A80036;stroke-width:1.0;"/><!--MD5=[a20be087cc50b27c5753b9e0e2953292]
link Writer to updatePerson--><path d="M136.13,448.63 C151.51,463.01 174.6,483.3 197,498 C207.25,504.73 218.99,511.02 229.92,516.36 " fill="none" id="Writer-to-updatePerson" style="stroke:#A80036;stroke-width:1.0;"/><polygon fill="#A80036" points="234.56,518.59,228.1834,511.0841,230.0542,516.4226,224.7156,518.2934,234.56,518.59" style="stroke:#A80036;stroke-width:1.0;"/><!--MD5=[91c7e5904ef41ede6241dfa3a555da0d]
link Writer to updateProduct--><path d="M136.08,413.09 C151.44,398.47 174.51,377.87 197,363 C206.93,356.43 218.27,350.3 228.93,345.07 " fill="none" id="Writer-to-updateProduct" style="stroke:#A80036;stroke-width:1.0;"/><polygon fill="#A80036" points="233.45,342.88,223.6068,343.2141,228.9525,345.0645,227.102,350.4102,233.45,342.88" style="stroke:#A80036;stroke-width:1.0;"/><!--MD5=[43f0fc44b78958ae194516ed1cdbbf7e]
link Writer to deleteEntity--><path d="M133.73,389.37 C146.83,359.36 168.03,319.61 197,293 C205.16,285.5 215.32,279.44 225.38,274.65 " fill="none" id="Writer-to-deleteEntity" style="stroke:#A80036;stroke-width:1.0;"/><polygon fill="#A80036" points="229.99,272.54,220.1419,272.66,225.446,274.6262,223.4798,279.9304,229.99,272.54" style="stroke:#A80036;stroke-width:1.0;"/><!--MD5=[16802c1a36b9860804035c5dcdf67d97]
link Writer to deletePerson--><path d="M124.71,389.43 C133.92,344.44 154.43,272.99 197,227 C204.18,219.24 213.5,213.07 223.02,208.23 " fill="none" id="Writer-to-deletePerson" style="stroke:#A80036;stroke-width:1.0;"/><polygon fill="#A80036" points="227.7,205.96,217.8568,206.2941,223.2025,208.1445,221.352,213.4902,227.7,205.96" style="stroke:#A80036;stroke-width:1.0;"/><!--MD5=[a74551ea58de1de05f74186a79b44278]
link Writer to deleteProduct--><path d="M119.67,389.15 C124.11,331.01 140.06,225.48 197,159 C203.65,151.24 212.47,145.11 221.62,140.33 " fill="none" id="Writer-to-deleteProduct" style="stroke:#A80036;stroke-width:1.0;"/><polygon fill="#A80036" points="226.14,138.08,216.3007,138.5146,221.665,140.3103,219.8693,145.6746,226.14,138.08" style="stroke:#A80036;stroke-width:1.0;"/><!--MD5=[aeadbb69e7d625f3841fec1c0fe46ee6]
link Writer to logout--><path d="M122.83,389.29 C132.91,308.71 158.52,135.64 197,91 C205.93,80.64 218.81,73.32 231.16,68.26 " fill="none" id="Writer-to-logout" style="stroke:#A80036;stroke-width:1.0;"/><polygon fill="#A80036" points="236.04,66.36,226.2019,65.8998,231.3811,68.175,229.1059,73.3541,236.04,66.36" style="stroke:#A80036;stroke-width:1.0;"/><!--MD5=[45a04bfe46a8986d0cdb8dcf3040edf4]
link createEntity to editPerson--><path d="M334.75,668 C373.01,668 421.29,668 459.5,668 " fill="none" id="createEntity-to-editPerson" style="stroke:#A80036;stroke-width:1.0;stroke-dasharray:7.0,7.0;"/><polygon fill="#A80036" points="464.59,668,455.59,664,459.59,668,455.59,672,464.59,668" style="stroke:#A80036;stroke-width:1.0;"/><text fill="#000000" font-family="sans-serif" font-size="13" lengthAdjust="spacing" textLength="55" x="372" y="664.4951">«include»</text><!--MD5=[12bd04ad9c5aad8ab6200e3de4298811]
link createPerson to editEntity--><path d="M314.83,477 C361.55,489.51 434.27,508.98 480.49,521.35 " fill="none" id="createPerson-to-editEntity" style="stroke:#A80036;stroke-width:1.0;stroke-dasharray:7.0,7.0;"/><polygon fill="#A80036" points="485.44,522.68,477.7894,516.4778,480.6119,521.3801,475.7096,524.2027,485.44,522.68" style="stroke:#A80036;stroke-width:1.0;"/><text fill="#000000" font-family="sans-serif" font-size="13" lengthAdjust="spacing" textLength="55" x="372" y="489.4951">«include»</text><!--MD5=[9845eabc98801c3885b9267b367d3b42]
link createProduct to editProduct--><path d="M339.74,397 C376.14,397 420.47,397 456.52,397 " fill="none" id="createProduct-to-editProduct" style="stroke:#A80036;stroke-width:1.0;stroke-dasharray:7.0,7.0;"/><polygon fill="#A80036" points="461.78,397,452.78,393,456.78,397,452.78,401,461.78,397" style="stroke:#A80036;stroke-width:1.0;"/><text fill="#000000" font-family="sans-serif" font-size="13" lengthAdjust="spacing" textLength="55" x="372" y="393.4951">«include»</text><!--MD5=[deca4217d6fac5628a25f021184b65c7]
link updateEntity to editPerson--><path d="M314.53,612.75 C360.25,624.81 431.07,643.49 477.49,655.73 " fill="none" id="updateEntity-to-editPerson" style="stroke:#A80036;stroke-width:1.0;stroke-dasharray:7.0,7.0;"/><polygon fill="#A80036" points="482.47,657.04,474.7852,650.8801,477.6348,655.7668,472.7481,658.6164,482.47,657.04" style="stroke:#A80036;stroke-width:1.0;"/><text fill="#000000" font-family="sans-serif" font-size="13" lengthAdjust="spacing" textLength="55" x="372" y="625.4951">«include»</text><!--MD5=[58e83364cf752b76d1e1a118daf8c9b5]
link updatePerson to editEntity--><path d="M339.74,533 C379.5,533 428.72,533 466.28,533 " fill="none" id="updatePerson-to-editEntity" style="stroke:#A80036;stroke-width:1.0;stroke-dasharray:7.0,7.0;"/><polygon fill="#A80036" points="471.74,533,462.74,529,466.74,533,462.74,537,471.74,533" style="stroke:#A80036;stroke-width:1.0;"/><text fill="#000000" font-family="sans-serif" font-size="13" lengthAdjust="spacing" textLength="55" x="372" y="529.4951">«include»</text><!--MD5=[b6bb3d9f8e03464aecb507fed18af97f]
link updateProduct to editProduct--><path d="M316.88,340.74 C362.52,353.13 431.5,371.87 477.13,384.27 " fill="none" id="updateProduct-to-editProduct" style="stroke:#A80036;stroke-width:1.0;stroke-dasharray:7.0,7.0;"/><polygon fill="#A80036" points="482.02,385.6,474.3865,379.3767,477.1955,384.2868,472.2854,387.0959,482.02,385.6" style="stroke:#A80036;stroke-width:1.0;"/><text fill="#000000" font-family="sans-serif" font-size="13" lengthAdjust="spacing" textLength="55" x="372" y="353.4951">«include»</text><!--MD5=[8ba6433f7577eecbfdb39f997f7b39cb]
link editPerson to readIndex--><path d="M551.18,682.19 C595.97,707.44 689.23,760.01 736.58,786.7 " fill="none" id="editPerson-to-readIndex" style="stroke:#A80036;stroke-width:1.0;stroke-dasharray:7.0,7.0;"/><polygon fill="#A80036" points="741.02,789.2,735.1455,781.2949,736.6648,786.7439,731.2158,788.2633,741.02,789.2" style="stroke:#A80036;stroke-width:1.0;"/><text fill="#000000" font-family="sans-serif" font-size="13" lengthAdjust="spacing" textLength="55" x="625" y="720.4951">«include»</text><!--MD5=[51664b6a30e51e2feb0ebf211894dc86]
link editEntity to readIndex--><path d="M540.93,548.11 C569.05,576.72 631.47,641.06 681,698 C706.34,727.13 734.12,762.33 750.66,783.67 " fill="none" id="editEntity-to-readIndex" style="stroke:#A80036;stroke-width:1.0;stroke-dasharray:7.0,7.0;"/><polygon fill="#A80036" points="753.82,787.75,751.4448,778.1919,750.7473,783.8055,745.1336,783.1081,753.82,787.75" style="stroke:#A80036;stroke-width:1.0;"/><text fill="#000000" font-family="sans-serif" font-size="13" lengthAdjust="spacing" textLength="55" x="625" y="634.4951">«include»</text><!--MD5=[7afb4d7ef959308d35d5345e054b97ca]
link editProduct to readIndex--><path d="M541.02,412.27 C559.75,431.72 592.2,466.81 616,500 C685.72,597.25 739.26,731.91 758.13,782.61 " fill="none" id="editProduct-to-readIndex" style="stroke:#A80036;stroke-width:1.0;stroke-dasharray:7.0,7.0;"/><polygon fill="#A80036" points="759.95,787.53,760.5713,777.7008,758.2116,782.8419,753.0704,780.4822,759.95,787.53" style="stroke:#A80036;stroke-width:1.0;"/><text fill="#000000" font-family="sans-serif" font-size="13" lengthAdjust="spacing" textLength="55" x="625" y="511.4951">«include»</text><!--MD5=[3225f67a6f1e990f334d0168e21a5823]
@startuml ActoresCasosUso

left to right direction

actor User
usecase readIndex

package readers {
actor Reader
usecase readEntity
usecase readPerson
usecase readProduct
}

package writers {
actor Writer
usecase login
usecase createEntity
usecase createPerson
usecase createProduct
usecase updateEntity
usecase updatePerson
usecase updateProduct
usecase deleteEntity
usecase deletePerson
usecase deleteProduct
usecase editEntity
usecase editPerson
usecase editProduct
usecase logout
}

User - -> readIndex

User <|-down- Reader
Reader - -> readPerson
Reader - -> readEntity
Reader - -> readProduct

readPerson ..> readIndex : <<include>>
readEntity ..> readIndex : <<include>>
readProduct ..> readIndex : <<include>>

User <|-down- Writer
Writer - -> login
Writer - -> createEntity
Writer - -> createPerson
Writer - -> createProduct
Writer - -> updateEntity
Writer - -> updatePerson
Writer - -> updateProduct
Writer - -> deleteEntity
Writer - -> deletePerson
Writer - -> deleteProduct
Writer - -> logout

createEntity ..> editPerson : <<include>>
createPerson ..> editEntity : <<include>>
createProduct ..> editProduct : <<include>>
updateEntity ..> editPerson : <<include>>
updatePerson ..> editEntity : <<include>>
updateProduct ..> editProduct : <<include>>

editPerson ..> readIndex : <<include>>
editEntity ..> readIndex : <<include>>
editProduct ..> readIndex : <<include>>

@enduml

PlantUML version 1.2022.0(Tue Jan 11 17:16:42 CET 2022)
(GPL source distribution)
Java Runtime: OpenJDK Runtime Environment
JVM: OpenJDK 64-Bit Server VM
Default Encoding: Cp1252
Language: es
Country: ES
--></g></svg>