<?xml version="1.0" encoding="UTF-8" standalone="no"?><svg xmlns="http://www.w3.org/2000/svg" xmlns:xlink="http://www.w3.org/1999/xlink" contentScriptType="application/ecmascript" contentStyleType="text/css" height="450px" preserveAspectRatio="none" style="width:155px;height:450px;background:#FFFFFF;" version="1.1" viewBox="0 0 155 450" width="155px" zoomAndPan="magnify"><defs><filter height="300%" id="f136qydsxj2rjb" width="300%" x="-1" y="-1"><feGaussianBlur result="blurOut" stdDeviation="2.0"/><feColorMatrix in="blurOut" result="blurOut2" type="matrix" values="0 0 0 0 0 0 0 0 0 0 0 0 0 0 0 0 0 0 .4 0"/><feOffset dx="4.0" dy="4.0" in="blurOut2" result="blurOut3"/><feBlend in="SourceGraphic" in2="blurOut3" mode="normal"/></filter></defs><g><!--MD5=[09ce52be0ee7de43c61b6e2d59bf108b]
class Person--><rect codeLine="2" fill="#FEFECE" filter="url(#f136qydsxj2rjb)" height="103.3438" id="Person" style="stroke:#A80036;stroke-width:1.5;" width="86" x="7" y="333"/><ellipse cx="28.3" cy="349" fill="#ADD1B2" rx="11" ry="11" style="stroke:#A80036;stroke-width:1.0;"/><path d="M31.0656,344.875 Q31.2219,344.6563 31.4094,344.5469 Q31.5969,344.4375 31.8156,344.4375 Q32.1906,344.4375 32.425,344.7031 Q32.6594,344.9531 32.6594,345.5625 L32.6594,347.0156 Q32.6594,347.625 32.425,347.8906 Q32.1906,348.1563 31.8156,348.1563 Q31.4719,348.1563 31.2688,347.9531 Q31.0656,347.7656 30.9563,347.25 Q30.9094,346.8906 30.7219,346.7031 Q30.3938,346.3281 29.7844,346.1094 Q29.175,345.8906 28.55,345.8906 Q27.7844,345.8906 27.1438,346.2188 Q26.5188,346.5469 26.0188,347.2969 Q25.5344,348.0469 25.5344,349.0781 L25.5344,350.1719 Q25.5344,351.4063 26.425,352.2344 Q27.3156,353.0469 28.9094,353.0469 Q29.8469,353.0469 30.5031,352.7969 Q30.8938,352.6406 31.3156,352.2031 Q31.5813,351.9375 31.7219,351.8594 Q31.8781,351.7813 32.0813,351.7813 Q32.4094,351.7813 32.6594,352.0469 Q32.925,352.2969 32.925,352.6406 Q32.925,352.9844 32.5813,353.3906 Q32.0813,353.9688 31.2844,354.2969 Q30.2063,354.75 28.9094,354.75 Q27.3938,354.75 26.1906,354.125 Q25.2063,353.625 24.5188,352.5625 Q23.8313,351.4844 23.8313,350.2031 L23.8313,349.0469 Q23.8313,347.7188 24.4406,346.5781 Q25.0656,345.4219 26.1594,344.8125 Q27.2531,344.1875 28.4875,344.1875 Q29.2219,344.1875 29.8625,344.3594 Q30.5188,344.5156 31.0656,344.875 Z " fill="#000000"/><text fill="#000000" font-family="sans-serif" font-size="12" lengthAdjust="spacing" textLength="40" x="43.7" y="353.9102">Person</text><line style="stroke:#A80036;stroke-width:1.5;" x1="8" x2="92" y1="365" y2="365"/><ellipse cx="18" cy="376" rx="3" ry="3" style="stroke:#038048;stroke-width:1.0;fill:none;"/><text fill="#000000" font-family="sans-serif" font-size="11" lengthAdjust="spacing" textLength="60" x="27" y="380.4189">name: String</text><ellipse cx="18" cy="389.8359" rx="3" ry="3" style="stroke:#038048;stroke-width:1.0;fill:none;"/><text fill="#000000" font-family="sans-serif" font-size="11" lengthAdjust="spacing" textLength="49" x="27" y="394.2549">birth: Date</text><ellipse cx="18" cy="403.6719" rx="3" ry="3" style="stroke:#038048;stroke-width:1.0;fill:none;"/><text fill="#000000" font-family="sans-serif" font-size="11" lengthAdjust="spacing" textLength="55" x="27" y="408.0908">death: Date</text><ellipse cx="18" cy="417.5078" rx="3" ry="3" style="stroke:#038048;stroke-width:1.0;fill:none;"/><text fill="#000000" font-family="sans-serif" font-size="11" lengthAdjust="spacing" textLength="53" x="27" y="421.9268">wiki: String</text><line style="stroke:#A80036;stroke-width:1.5;" x1="8" x2="92" y1="428.3438" y2="428.3438"/><!--MD5=[be996cdb8e6bf2fc7cb89c555f2cd144]
class Entity--><rect codeLine="9" fill="#FEFECE" filter="url(#f136qydsxj2rjb)" height="103.3438" id="Entity" style="stroke:#A80036;stroke-width:1.5;" width="86" x="55" y="170"/><ellipse cx="81.25" cy="186" fill="#ADD1B2" rx="11" ry="11" style="stroke:#A80036;stroke-width:1.0;"/><path d="M84.0156,181.875 Q84.1719,181.6563 84.3594,181.5469 Q84.5469,181.4375 84.7656,181.4375 Q85.1406,181.4375 85.375,181.7031 Q85.6094,181.9531 85.6094,182.5625 L85.6094,184.0156 Q85.6094,184.625 85.375,184.8906 Q85.1406,185.1563 84.7656,185.1563 Q84.4219,185.1563 84.2188,184.9531 Q84.0156,184.7656 83.9063,184.25 Q83.8594,183.8906 83.6719,183.7031 Q83.3438,183.3281 82.7344,183.1094 Q82.125,182.8906 81.5,182.8906 Q80.7344,182.8906 80.0938,183.2188 Q79.4688,183.5469 78.9688,184.2969 Q78.4844,185.0469 78.4844,186.0781 L78.4844,187.1719 Q78.4844,188.4063 79.375,189.2344 Q80.2656,190.0469 81.8594,190.0469 Q82.7969,190.0469 83.4531,189.7969 Q83.8438,189.6406 84.2656,189.2031 Q84.5313,188.9375 84.6719,188.8594 Q84.8281,188.7813 85.0313,188.7813 Q85.3594,188.7813 85.6094,189.0469 Q85.875,189.2969 85.875,189.6406 Q85.875,189.9844 85.5313,190.3906 Q85.0313,190.9688 84.2344,191.2969 Q83.1563,191.75 81.8594,191.75 Q80.3438,191.75 79.1406,191.125 Q78.1563,190.625 77.4688,189.5625 Q76.7813,188.4844 76.7813,187.2031 L76.7813,186.0469 Q76.7813,184.7188 77.3906,183.5781 Q78.0156,182.4219 79.1094,181.8125 Q80.2031,181.1875 81.4375,181.1875 Q82.1719,181.1875 82.8125,181.3594 Q83.4688,181.5156 84.0156,181.875 Z " fill="#000000"/><text fill="#000000" font-family="sans-serif" font-size="12" lengthAdjust="spacing" textLength="29" x="97.75" y="190.9102">Entity</text><line style="stroke:#A80036;stroke-width:1.5;" x1="56" x2="140" y1="202" y2="202"/><ellipse cx="66" cy="213" rx="3" ry="3" style="stroke:#038048;stroke-width:1.0;fill:none;"/><text fill="#000000" font-family="sans-serif" font-size="11" lengthAdjust="spacing" textLength="60" x="75" y="217.4189">name: String</text><ellipse cx="66" cy="226.8359" rx="3" ry="3" style="stroke:#038048;stroke-width:1.0;fill:none;"/><text fill="#000000" font-family="sans-serif" font-size="11" lengthAdjust="spacing" textLength="49" x="75" y="231.2549">birth: Date</text><ellipse cx="66" cy="240.6719" rx="3" ry="3" style="stroke:#038048;stroke-width:1.0;fill:none;"/><text fill="#000000" font-family="sans-serif" font-size="11" lengthAdjust="spacing" textLength="55" x="75" y="245.0908">death: Date</text><ellipse cx="66" cy="254.5078" rx="3" ry="3" style="stroke:#038048;stroke-width:1.0;fill:none;"/><text fill="#000000" font-family="sans-serif" font-size="11" lengthAdjust="spacing" textLength="53" x="75" y="258.9268">wiki: String</text><line style="stroke:#A80036;stroke-width:1.5;" x1="56" x2="140" y1="265.3438" y2="265.3438"/><!--MD5=[72136138052d025cffdce3c22fbd185f]
class Product--><rect codeLine="16" fill="#FEFECE" filter="url(#f136qydsxj2rjb)" height="103.3438" id="Product" style="stroke:#A80036;stroke-width:1.5;" width="86" x="7" y="7"/><ellipse cx="27.4" cy="23" fill="#ADD1B2" rx="11" ry="11" style="stroke:#A80036;stroke-width:1.0;"/><path d="M30.1656,18.875 Q30.3219,18.6563 30.5094,18.5469 Q30.6969,18.4375 30.9156,18.4375 Q31.2906,18.4375 31.525,18.7031 Q31.7594,18.9531 31.7594,19.5625 L31.7594,21.0156 Q31.7594,21.625 31.525,21.8906 Q31.2906,22.1563 30.9156,22.1563 Q30.5719,22.1563 30.3688,21.9531 Q30.1656,21.7656 30.0563,21.25 Q30.0094,20.8906 29.8219,20.7031 Q29.4938,20.3281 28.8844,20.1094 Q28.275,19.8906 27.65,19.8906 Q26.8844,19.8906 26.2438,20.2188 Q25.6188,20.5469 25.1188,21.2969 Q24.6344,22.0469 24.6344,23.0781 L24.6344,24.1719 Q24.6344,25.4063 25.525,26.2344 Q26.4156,27.0469 28.0094,27.0469 Q28.9469,27.0469 29.6031,26.7969 Q29.9938,26.6406 30.4156,26.2031 Q30.6813,25.9375 30.8219,25.8594 Q30.9781,25.7813 31.1813,25.7813 Q31.5094,25.7813 31.7594,26.0469 Q32.025,26.2969 32.025,26.6406 Q32.025,26.9844 31.6813,27.3906 Q31.1813,27.9688 30.3844,28.2969 Q29.3063,28.75 28.0094,28.75 Q26.4938,28.75 25.2906,28.125 Q24.3063,27.625 23.6188,26.5625 Q22.9313,25.4844 22.9313,24.2031 L22.9313,23.0469 Q22.9313,21.7188 23.5406,20.5781 Q24.1656,19.4219 25.2594,18.8125 Q26.3531,18.1875 27.5875,18.1875 Q28.3219,18.1875 28.9625,18.3594 Q29.6188,18.5156 30.1656,18.875 Z " fill="#000000"/><text fill="#000000" font-family="sans-serif" font-size="12" lengthAdjust="spacing" textLength="42" x="42.6" y="27.9102">Product</text><line style="stroke:#A80036;stroke-width:1.5;" x1="8" x2="92" y1="39" y2="39"/><ellipse cx="18" cy="50" rx="3" ry="3" style="stroke:#038048;stroke-width:1.0;fill:none;"/><text fill="#000000" font-family="sans-serif" font-size="11" lengthAdjust="spacing" textLength="60" x="27" y="54.4189">name: String</text><ellipse cx="18" cy="63.8359" rx="3" ry="3" style="stroke:#038048;stroke-width:1.0;fill:none;"/><text fill="#000000" font-family="sans-serif" font-size="11" lengthAdjust="spacing" textLength="49" x="27" y="68.2549">birth: Date</text><ellipse cx="18" cy="77.6719" rx="3" ry="3" style="stroke:#038048;stroke-width:1.0;fill:none;"/><text fill="#000000" font-family="sans-serif" font-size="11" lengthAdjust="spacing" textLength="55" x="27" y="82.0908">death: Date</text><ellipse cx="18" cy="91.5078" rx="3" ry="3" style="stroke:#038048;stroke-width:1.0;fill:none;"/><text fill="#000000" font-family="sans-serif" font-size="11" lengthAdjust="spacing" textLength="53" x="27" y="95.9268">wiki: String</text><line style="stroke:#A80036;stroke-width:1.5;" x1="8" x2="92" y1="102.3438" y2="102.3438"/><!--MD5=[f9162d5366d9f0b61080242237231aba]
link Product to Person--><path codeLine="23" d="M43.35,110.02 C41.19,128.81 39.06,150.35 38,170 C35.53,215.71 35.53,227.29 38,273 C38.96,290.81 40.8,310.17 42.74,327.63 " fill="none" id="Product-to-Person" style="stroke:#A80036;stroke-width:1.0;"/><polygon fill="#A80036" points="43.35,332.98,46.3228,323.5905,42.7931,328.0111,38.3725,324.4815,43.35,332.98" style="stroke:#A80036;stroke-width:1.0;"/><text fill="#000000" font-family="sans-serif" font-size="13" lengthAdjust="spacing" textLength="5" x="37.0633" y="322.1057">*</text><!--MD5=[9ee9e8097ce5b0f1f9da8dbb33a2f109]
link Product to Entity--><path codeLine="24" d="M65.19,110.44 C70.36,127.79 76.16,147.26 81.44,164.95 " fill="none" id="Product-to-Entity" style="stroke:#A80036;stroke-width:1.0;"/><polygon fill="#A80036" points="82.91,169.89,84.1686,160.1219,81.4798,165.0989,76.5028,162.4102,82.91,169.89" style="stroke:#A80036;stroke-width:1.0;"/><text fill="#000000" font-family="sans-serif" font-size="13" lengthAdjust="spacing" textLength="5" x="75.4364" y="159.003">*</text><!--MD5=[77a1ef45d07abda0ddfcf2b4169f39ce]
link Entity to Person--><path codeLine="25" d="M79.3812,284.9397 C79.3812,284.9397 72.23,308.94 68.91,320.08 " fill="none" id="Entity-Person" style="stroke:#A80036;stroke-width:1.0;"/><polygon fill="#A80036" points="65.09,332.89,71.4948,325.4082,66.5187,328.0985,63.8284,323.1223,65.09,332.89" style="stroke:#A80036;stroke-width:1.0;"/><line style="stroke:#A80036;stroke-width:1.0;" x1="66.5187" x2="68.8" y1="328.0985" y2="320.43"/><polygon fill="#FFFFFF" points="82.81,273.44,77.2624,278.0469,79.3812,284.9397,84.9288,280.3328,82.81,273.44" style="stroke:#A80036;stroke-width:1.0;"/><text fill="#000000" font-family="sans-serif" font-size="13" lengthAdjust="spacing" textLength="5" x="61.8605" y="322.003">*</text><!--MD5=[f20b02b59ac739aa5dbf697ee5229820]
@startuml draughtsModeloDominio

class Person {
+ name: String
+ birth: Date
+ death: Date
+ wiki: String 
}

class Entity {
+ name: String
+ birth: Date
+ death: Date
+ wiki: String
}

class Product {
+ name: String
+ birth: Date
+ death: Date
+ wiki: String
}

Product -down-> "*" Person
Product -down-> "*" Entity
Entity o-down-> "*" Person

@enduml

PlantUML version 1.2022.0(Tue Jan 11 17:16:42 CET 2022)
(GPL source distribution)
Java Runtime: OpenJDK Runtime Environment
JVM: OpenJDK 64-Bit Server VM
Default Encoding: Cp1252
Language: es
Country: ES
--></g></svg>