<?xml version="1.0" encoding="UTF-8" standalone="no"?><svg xmlns="http://www.w3.org/2000/svg" xmlns:xlink="http://www.w3.org/1999/xlink" contentScriptType="application/ecmascript" contentStyleType="text/css" height="296px" preserveAspectRatio="none" style="width:973px;height:296px;background:#FFFFFF;" version="1.1" viewBox="0 0 973 296" width="973px" zoomAndPan="magnify"><defs><filter height="300%" id="f1ci71gqql80si" width="300%" x="-1" y="-1"><feGaussianBlur result="blurOut" stdDeviation="2.0"/><feColorMatrix in="blurOut" result="blurOut2" type="matrix" values="0 0 0 0 0 0 0 0 0 0 0 0 0 0 0 0 0 0 .4 0"/><feOffset dx="4.0" dy="4.0" in="blurOut2" result="blurOut3"/><feBlend in="SourceGraphic" in2="blurOut3" mode="normal"/></filter></defs><g><ellipse cx="71" cy="16" fill="#000000" filter="url(#f1ci71gqql80si)" rx="10" ry="10" style="stroke:none;stroke-width:1.0;"/><g id="SHOWED_INDEX"><rect fill="#FEFECE" filter="url(#f1ci71gqql80si)" height="50" rx="12.5" ry="12.5" style="stroke:#A80036;stroke-width:1.5;" width="128" x="7" y="104"/><line style="stroke:#A80036;stroke-width:1.5;" x1="7" x2="135" y1="131.6094" y2="131.6094"/><text fill="#000000" font-family="sans-serif" font-size="14" lengthAdjust="spacing" textLength="108" x="17" y="123.5332">SHOWED_INDEX</text></g><g id="OPENED_INDEX"><rect fill="#FEFECE" filter="url(#f1ci71gqql80si)" height="50" rx="12.5" ry="12.5" style="stroke:#A80036;stroke-width:1.5;" width="124" x="9" y="232"/><line style="stroke:#A80036;stroke-width:1.5;" x1="9" x2="133" y1="259.6094" y2="259.6094"/><text fill="#000000" font-family="sans-serif" font-size="14" lengthAdjust="spacing" textLength="104" x="19" y="251.5332">OPENED_INDEX</text></g><!--MD5=[ac5a1f74073a577033870b1a98427f0c]
link *start to SHOWED_INDEX--><path d="M71,26.08 C71,41.75 71,74.47 71,98.64 " fill="none" id="*start-to-SHOWED_INDEX" style="stroke:#A80036;stroke-width:1.0;"/><polygon fill="#A80036" points="71,103.65,75,94.65,71,98.65,67,94.65,71,103.65" style="stroke:#A80036;stroke-width:1.0;"/><text fill="#000000" font-family="sans-serif" font-size="13" lengthAdjust="spacing" textLength="61" x="72" y="70.4951">showIndex</text><!--MD5=[5fca5ee8b7698c0796cc99cd7c85672a]
link SHOWED_INDEX to SHOWED_INDEX--><path d="M135.27,126 C154.76,126.08 170,127.08 170,129 C170,130.74 157.49,131.73 140.63,131.95 " fill="none" id="SHOWED_INDEX-to-SHOWED_INDEX" style="stroke:#A80036;stroke-width:1.0;"/><polygon fill="#A80036" points="135.27,132,144.304,135.9227,140.2698,131.9571,144.2354,127.923,135.27,132" style="stroke:#A80036;stroke-width:1.0;"/><text fill="#000000" font-family="sans-serif" font-size="13" lengthAdjust="spacing" textLength="59" x="176" y="134.4951">readEntity</text><!--MD5=[5fca5ee8b7698c0796cc99cd7c85672a]
link SHOWED_INDEX to SHOWED_INDEX--><path d="M135.07,123.66 C185.41,121.89 241,123.67 241,129 C241,134.15 189.04,135.99 140.1,134.5 " fill="none" id="SHOWED_INDEX-to-SHOWED_INDEX-1" style="stroke:#A80036;stroke-width:1.0;"/><polygon fill="#A80036" points="135.07,134.34,143.9277,138.646,140.0671,134.5113,144.2018,130.6507,135.07,134.34" style="stroke:#A80036;stroke-width:1.0;"/><text fill="#000000" font-family="sans-serif" font-size="13" lengthAdjust="spacing" textLength="66" x="247" y="134.4951">readPerson</text><!--MD5=[5fca5ee8b7698c0796cc99cd7c85672a]
link SHOWED_INDEX to SHOWED_INDEX--><path d="M135.04,122.16 C212.59,117.78 319,120.06 319,129 C319,137.75 217.11,140.12 140.07,136.11 " fill="none" id="SHOWED_INDEX-to-SHOWED_INDEX-2" style="stroke:#A80036;stroke-width:1.0;"/><polygon fill="#A80036" points="135.04,135.84,143.8099,140.322,140.0326,136.111,144.2436,132.3337,135.04,135.84" style="stroke:#A80036;stroke-width:1.0;"/><text fill="#000000" font-family="sans-serif" font-size="13" lengthAdjust="spacing" textLength="70" x="325" y="134.4951">readProduct</text><!--MD5=[5fca5ee8b7698c0796cc99cd7c85672a]
link SHOWED_INDEX to SHOWED_INDEX--><path d="M135.27,121.04 C237.47,113.71 401,116.36 401,129 C401,141.43 242.85,144.2 140.41,137.32 " fill="none" id="SHOWED_INDEX-to-SHOWED_INDEX-3" style="stroke:#A80036;stroke-width:1.0;"/><polygon fill="#A80036" points="135.27,136.96,143.9612,141.5928,140.2572,137.3173,144.5328,133.6133,135.27,136.96" style="stroke:#A80036;stroke-width:1.0;"/><text fill="#000000" font-family="sans-serif" font-size="13" lengthAdjust="spacing" textLength="56" x="407" y="134.4951">readIndex</text><!--MD5=[4c0034cea07e2cf1c83c72b114d0ac88]
link SHOWED_INDEX to OPENED_INDEX--><path d="M49.88,154.16 C43.49,162.95 37.3,173.36 34,184 C29.33,199.08 35.88,214.78 44.7,227.66 " fill="none" id="SHOWED_INDEX-to-OPENED_INDEX" style="stroke:#A80036;stroke-width:1.0;"/><polygon fill="#A80036" points="47.77,231.92,45.7681,222.2767,44.853,227.8591,39.2707,226.9439,47.77,231.92" style="stroke:#A80036;stroke-width:1.0;"/><text fill="#000000" font-family="sans-serif" font-size="13" lengthAdjust="spacing" textLength="27" x="35" y="198.4951">login</text><!--MD5=[252182bb05e3e62a7a79b28ae7985a77]
link OPENED_INDEX to SHOWED_INDEX--><path d="M71,231.78 C71,211.15 71,181.43 71,159.43 " fill="none" id="OPENED_INDEX-to-SHOWED_INDEX" style="stroke:#A80036;stroke-width:1.0;"/><polygon fill="#A80036" points="71,154.29,67,163.29,71,159.29,75,163.29,71,154.29" style="stroke:#A80036;stroke-width:1.0;"/><text fill="#000000" font-family="sans-serif" font-size="13" lengthAdjust="spacing" textLength="35" x="72" y="198.4951">logout</text><!--MD5=[2f66523afca4e5a5e710cf73b6a9e129]
link OPENED_INDEX to OPENED_INDEX--><path d="M133.04,255.5 C152.58,255.52 168,256.02 168,257 C168,257.89 155.34,258.38 138.42,258.48 " fill="none" id="OPENED_INDEX-to-OPENED_INDEX" style="stroke:#A80036;stroke-width:1.0;"/><polygon fill="#A80036" points="133.04,258.5,142.0627,262.4485,138.0399,258.4714,142.017,254.4486,133.04,258.5" style="stroke:#A80036;stroke-width:1.0;"/><text fill="#000000" font-family="sans-serif" font-size="13" lengthAdjust="spacing" textLength="80" x="174" y="262.4951">updatePerson</text><!--MD5=[2f66523afca4e5a5e710cf73b6a9e129]
link OPENED_INDEX to OPENED_INDEX--><path d="M133.36,254.44 C190.68,253.38 260,254.23 260,257 C260,259.68 194.69,260.57 138.43,259.65 " fill="none" id="OPENED_INDEX-to-OPENED_INDEX-1" style="stroke:#A80036;stroke-width:1.0;"/><polygon fill="#A80036" points="133.36,259.56,142.2901,263.7137,138.3593,259.6457,142.4272,255.7149,133.36,259.56" style="stroke:#A80036;stroke-width:1.0;"/><text fill="#000000" font-family="sans-serif" font-size="13" lengthAdjust="spacing" textLength="77" x="266" y="262.4951">createPerson</text><!--MD5=[2f66523afca4e5a5e710cf73b6a9e129]
link OPENED_INDEX to OPENED_INDEX--><path d="M133.26,253.75 C219.34,251.34 349,252.42 349,257 C349,261.49 224.35,262.62 138.35,260.39 " fill="none" id="OPENED_INDEX-to-OPENED_INDEX-2" style="stroke:#A80036;stroke-width:1.0;"/><polygon fill="#A80036" points="133.26,260.25,142.1542,264.48,138.2583,260.3785,142.3598,256.4827,133.26,260.25" style="stroke:#A80036;stroke-width:1.0;"/><text fill="#000000" font-family="sans-serif" font-size="13" lengthAdjust="spacing" textLength="73" x="355" y="262.4951">updateEntity</text><!--MD5=[2f66523afca4e5a5e710cf73b6a9e129]
link OPENED_INDEX to OPENED_INDEX--><path d="M133.08,253.21 C243.01,249.31 434,250.57 434,257 C434,263.33 248.94,264.65 138.29,260.97 " fill="none" id="OPENED_INDEX-to-OPENED_INDEX-3" style="stroke:#A80036;stroke-width:1.0;"/><polygon fill="#A80036" points="133.08,260.79,141.9377,265.096,138.0771,260.9613,142.2118,257.1007,133.08,260.79" style="stroke:#A80036;stroke-width:1.0;"/><text fill="#000000" font-family="sans-serif" font-size="13" lengthAdjust="spacing" textLength="70" x="440" y="262.4951">createEntity</text><!--MD5=[2f66523afca4e5a5e710cf73b6a9e129]
link OPENED_INDEX to OPENED_INDEX--><path d="M133.39,252.75 C264.41,247.29 516,248.71 516,257 C516,265.19 270.76,266.67 138.44,261.46 " fill="none" id="OPENED_INDEX-to-OPENED_INDEX-4" style="stroke:#A80036;stroke-width:1.0;"/><polygon fill="#A80036" points="133.39,261.25,142.2229,265.6065,138.386,261.4498,142.5427,257.6129,133.39,261.25" style="stroke:#A80036;stroke-width:1.0;"/><text fill="#000000" font-family="sans-serif" font-size="13" lengthAdjust="spacing" textLength="84" x="522" y="262.4951">updateProduct</text><!--MD5=[2f66523afca4e5a5e710cf73b6a9e129]
link OPENED_INDEX to OPENED_INDEX--><path d="M133.03,252.42 C286.19,245.27 612,246.79 612,257 C612,267.1 293.15,268.7 138.02,261.8 " fill="none" id="OPENED_INDEX-to-OPENED_INDEX-5" style="stroke:#A80036;stroke-width:1.0;"/><polygon fill="#A80036" points="133.03,261.58,141.8379,265.9868,138.0248,261.8083,142.2033,257.9952,133.03,261.58" style="stroke:#A80036;stroke-width:1.0;"/><text fill="#000000" font-family="sans-serif" font-size="13" lengthAdjust="spacing" textLength="81" x="618" y="262.4951">createProduct</text><!--MD5=[2f66523afca4e5a5e710cf73b6a9e129]
link OPENED_INDEX to OPENED_INDEX--><path d="M133.12,252.12 C306.53,243.25 705,244.88 705,257 C705,269 314.27,270.71 138.26,262.14 " fill="none" id="OPENED_INDEX-to-OPENED_INDEX-6" style="stroke:#A80036;stroke-width:1.0;"/><polygon fill="#A80036" points="133.12,261.88,141.9153,266.3119,138.1141,262.1226,142.3035,258.3213,133.12,261.88" style="stroke:#A80036;stroke-width:1.0;"/><text fill="#000000" font-family="sans-serif" font-size="13" lengthAdjust="spacing" textLength="76" x="711" y="262.4951">deletePerson</text><!--MD5=[2f66523afca4e5a5e710cf73b6a9e129]
link OPENED_INDEX to OPENED_INDEX--><path d="M133.15,251.84 C324.9,241.24 793,242.96 793,257 C793,270.92 333.09,272.73 138.27,262.44 " fill="none" id="OPENED_INDEX-to-OPENED_INDEX-7" style="stroke:#A80036;stroke-width:1.0;"/><polygon fill="#A80036" points="133.15,262.16,141.9327,266.617,138.1434,262.4168,142.3436,258.6275,133.15,262.16" style="stroke:#A80036;stroke-width:1.0;"/><text fill="#000000" font-family="sans-serif" font-size="13" lengthAdjust="spacing" textLength="69" x="799" y="262.4951">deleteEntity</text><!--MD5=[2f66523afca4e5a5e710cf73b6a9e129]
link OPENED_INDEX to OPENED_INDEX--><path d="M133.16,251.58 C341.43,239.23 874,241.04 874,257 C874,272.83 350.24,274.74 138.41,262.73 " fill="none" id="OPENED_INDEX-to-OPENED_INDEX-8" style="stroke:#A80036;stroke-width:1.0;"/><polygon fill="#A80036" points="133.16,262.42,141.9164,266.9284,138.1518,262.7061,142.3741,258.9415,133.16,262.42" style="stroke:#A80036;stroke-width:1.0;"/><text fill="#000000" font-family="sans-serif" font-size="13" lengthAdjust="spacing" textLength="80" x="880" y="262.4951">deleteProduct</text><!--MD5=[96482a1b0cf4c68bcadc08d1d53e7713]
@startuml diagtamaContexto

top to bottom direction

[*] -down-> SHOWED_INDEX : showIndex

SHOWED_INDEX - -> SHOWED_INDEX : readEntity
SHOWED_INDEX - -> SHOWED_INDEX : readPerson
SHOWED_INDEX - -> SHOWED_INDEX : readProduct
SHOWED_INDEX - -> SHOWED_INDEX : readIndex

SHOWED_INDEX - -> OPENED_INDEX : login

OPENED_INDEX - -> OPENED_INDEX : updatePerson
OPENED_INDEX - -> OPENED_INDEX : createPerson
OPENED_INDEX - -> OPENED_INDEX : updateEntity
OPENED_INDEX - -> OPENED_INDEX : createEntity
OPENED_INDEX - -> OPENED_INDEX : updateProduct
OPENED_INDEX - -> OPENED_INDEX : createProduct
OPENED_INDEX - -> OPENED_INDEX : deletePerson
OPENED_INDEX - -> OPENED_INDEX : deleteEntity
OPENED_INDEX - -> OPENED_INDEX : deleteProduct

OPENED_INDEX - -> SHOWED_INDEX : logout


@enduml 

PlantUML version 1.2022.0(Tue Jan 11 17:16:42 CET 2022)
(GPL source distribution)
Java Runtime: OpenJDK Runtime Environment
JVM: OpenJDK 64-Bit Server VM
Default Encoding: Cp1252
Language: es
Country: ES
--></g></svg>